<?xml version="1.0" encoding="UTF-8" standalone="no"?>
<!-- Created with Inkscape (http://www.inkscape.org/) -->

<svg
   xmlns:dc="http://purl.org/dc/elements/1.1/"
   xmlns:cc="http://creativecommons.org/ns#"
   xmlns:rdf="http://www.w3.org/1999/02/22-rdf-syntax-ns#"
   xmlns:svg="http://www.w3.org/2000/svg"
   xmlns="http://www.w3.org/2000/svg"
   xmlns:xlink="http://www.w3.org/1999/xlink"
   xmlns:sodipodi="http://sodipodi.sourceforge.net/DTD/sodipodi-0.dtd"
   xmlns:inkscape="http://www.inkscape.org/namespaces/inkscape"
   version="1.1"
   width="210mm"
   height="297mm"
   id="svg2"
   xml:space="preserve"
   sodipodi:docname="oeko.svg"
   inkscape:version="0.92.4 5da689c313, 2019-01-14"><metadata
     id="metadata1178"><rdf:RDF><cc:Work
         rdf:about=""><dc:format>image/svg+xml</dc:format><dc:type
           rdf:resource="http://purl.org/dc/dcmitype/StillImage" /><dc:title></dc:title></cc:Work></rdf:RDF></metadata><sodipodi:namedview
     pagecolor="#ffffff"
     bordercolor="#666666"
     borderopacity="1"
     objecttolerance="10"
     gridtolerance="10"
     guidetolerance="10"
     inkscape:pageopacity="0"
     inkscape:pageshadow="2"
     inkscape:window-width="1916"
     inkscape:window-height="1032"
     id="namedview1176"
     showgrid="false"
     inkscape:snap-bbox="true"
     inkscape:bbox-nodes="true"
     inkscape:bbox-paths="true"
     inkscape:snap-bbox-edge-midpoints="true"
     inkscape:snap-bbox-midpoints="true"
     inkscape:snap-global="false"
     units="mm"
     fit-margin-top="0"
     fit-margin-left="0"
     fit-margin-right="0"
     fit-margin-bottom="0"
     inkscape:zoom="0.70710678"
     inkscape:cx="100.00073"
     inkscape:cy="391.75928"
     inkscape:window-x="0"
     inkscape:window-y="46"
     inkscape:window-maximized="0"
     inkscape:current-layer="g14" /><defs
     id="defs6"><path
       inkscape:connector-curvature="0"
       transform="scale(1,-1)"
       style="opacity:1;fill:none;fill-opacity:1;fill-rule:nonzero;stroke:#ba3737;stroke-width:2.51968503;stroke-linecap:round;stroke-miterlimit:4;stroke-dasharray:none;stroke-dashoffset:0;stroke-opacity:1;paint-order:markers fill stroke"
       d="M 2301.1655,-1227.9844 A 1074.1812,1074.1812 0 0 0 1226.9844,-2302.1655 1074.1812,1074.1812 0 0 0 152.80322,-1227.9844 1074.1812,1074.1812 0 0 0 1226.9844,-153.80322 1074.1812,1074.1812 0 0 0 2301.1655,-1227.9844 Z"
       id="path1313-3" /></defs><g
     transform="matrix(1.25,0,0,-1.25,50.952319,1071.7174)"
     id="g12"><g
       transform="scale(0.12)"
       id="g14"><circle
   style="opacity:1;fill:#ffffff;fill-opacity:1;fill-rule:nonzero;stroke:none;stroke-width:10.61977196;stroke-linecap:round;stroke-miterlimit:4;stroke-dasharray:none;stroke-dashoffset:0;stroke-opacity:1;paint-order:markers fill stroke"
   id="path1375"
   cx="2335.7925"
   cy="-2310.9243"
   transform="scale(1,-1)"
   r="2304.0481" /><g
   id="g1386"
   style="fill:#231f20;fill-opacity:1"
   transform="matrix(2.0819712,0,0,2.0819712,-218.75356,-245.7039)"><g
     style="fill:#231f20;fill-opacity:1"
     id="g1382"><path
       d="M 1226.9688,33 C 568.61487,33 32,569.60726 32,1227.9688 c 0,658.3641 536.61441,1195 1194.9688,1195 658.3639,0 1195,-536.6361 1195,-1195 C 2421.9688,569.60741 1885.3322,33 1226.9688,33 Z m 0,271.65625 c 511.5565,0 923.3437,411.75984 923.3437,923.31255 0,511.556 -411.7877,923.3437 -923.3437,923.3437 -511.54371,0 -923.31255,-411.7879 -923.31255,-923.3437 0,-511.55256 411.76838,-923.31255 923.31255,-923.31255 z"
       id="path20"
       style="color:#000000;font-style:normal;font-variant:normal;font-weight:normal;font-stretch:normal;font-size:medium;line-height:normal;font-family:'Bitstream Vera Sans';-inkscape-font-specification:'Bitstream Vera Sans';text-indent:0;text-align:start;text-decoration:none;text-decoration-line:none;letter-spacing:normal;word-spacing:normal;text-transform:none;writing-mode:lr-tb;direction:ltr;text-anchor:start;display:inline;overflow:visible;visibility:visible;fill:#231f20;fill-opacity:1;stroke:none;stroke-width:271.65301514;marker:none;enable-background:accumulate"
       inkscape:connector-curvature="0"
       inkscape:transform-center-x="-0.36353535"
       inkscape:transform-center-y="12.616195" /></g></g><path
   d="m 3101.6575,612.9385 910.779,2520.5634 -73.7225,43.3675 c -221.2095,199.5153 -316.6471,325.3081 -550.8689,416.3941 -360.2851,140.1168 -659.2769,-134.4535 -967.2422,-216.8788 -473.1902,-126.6255 -908.7595,-93.5223 -1307.8047,171.0548 -42.8761,28.4396 -57.604,56.3589 -91.0862,95.4375 -281.9364,-312.3164 -499.73976,-714.3243 -541.77685,-1179.0828 -1.22835,-13.5744 2.12154,-21.2361 4.33467,-34.6856 95.42924,-78.074 782.64218,-723.1352 1741.21088,-380.4802 387.6838,138.5759 646.2854,-17.3428 980.2752,-225.5442 54.3396,-33.8799 51.0084,-33.3448 82.4044,-56.3838 l -412.0636,-1249.1828 108.4499,30.35929 117.1109,65.06161"
   id="path22"
   style="fill:#00000e;fill-opacity:1;fill-rule:nonzero;stroke:none;stroke-width:2.08197117"
   inkscape:connector-curvature="0" /><path
   d="M 2802.374,1948.8812 2258.8963,447.6737 c -26.8366,-1.10552 -42.0975,-1.2929 -68.83,1.15551 -47.6772,4.37423 -74.7844,10.30366 -120.0048,26.02463 l 276.8813,819.06006 -43.3882,30.3675 c -160.4784,60.7187 -232.9518,112.4183 -446.7453,73.7309 -455.4312,-82.4085 -1050.90823,130.4314 -1273.6292,596.11 -47.70628,99.7681 -74.22851,145.5923 -90.23262,246.8177 -6.58736,41.6812 -8.71097,65.6654 -8.67766,107.867 437.99466,-362.617 880.90078,-546.1677 1485.31568,-443.3142 284.0018,48.3226 465.05,196.8504 733.0205,91.0863 40.1195,-15.8438 62.3758,-26.212 99.768,-47.6979"
   id="path24"
   style="fill:#231f20;fill-opacity:1;fill-rule:nonzero;stroke:none;stroke-width:2.08197117"
   inkscape:connector-curvature="0" /><path
   style="color:#000000;font-style:normal;font-variant:normal;font-weight:normal;font-stretch:normal;font-size:medium;line-height:normal;font-family:'Bitstream Vera Sans';-inkscape-font-specification:'Bitstream Vera Sans';text-indent:0;text-align:start;text-decoration:none;text-decoration-line:none;letter-spacing:normal;word-spacing:normal;text-transform:none;writing-mode:lr-tb;direction:ltr;text-anchor:start;display:inline;overflow:visible;visibility:visible;fill:none;fill-opacity:1;stroke:#ba3737;stroke-width:5.24591112;stroke-miterlimit:4;stroke-dasharray:none;stroke-opacity:1;marker:none;enable-background:accumulate"
   d="m 2335.746,2306.3067 c 0,0 0,0 0,0 -0.769,0 -1.5403,0.206 -2.2107,0.5823 0,0 0,0 0,0 -0.8011,0.4464 -1.469,1.1419 -1.8817,1.9604 0,0 0,0 0,0 -0.3408,0.6718 -0.5113,1.434 -0.4913,2.1882 0,0 0,0 0,0 0.02,0.7727 0.238,1.5446 0.6308,2.2107 0,0 0,0 0,0 0.4606,0.7866 1.1651,1.437 1.9858,1.8322 0,0 0,0 0,0 0.6781,0.3287 1.4441,0.4851 2.1983,0.4513 0,0 0,0 0,0 0.7821,-0.033 1.5594,-0.2729 2.2243,-0.6876 0,0 0,0 0,0 0.766,-0.4745 1.3937,-1.1842 1.7693,-2.0023 0,0 0,0 0,0 0.3217,-0.6957 0.4628,-1.4783 0.4087,-2.2442 -2e-4,0 -2e-4,0 -2e-4,0 -0.054,-0.7866 -0.3182,-1.5627 -0.756,-2.2199 0,0 0,0 0,0 -0.4967,-0.7504 -1.2232,-1.3561 -2.0508,-1.7069 0,0 0,0 0,0 -0.5746,-0.2448 -1.2017,-0.3694 -1.8274,-0.3649 z"
   id="path20-3-7"
   inkscape:connector-curvature="0"
   sodipodi:nodetypes="ccccccccccccccccccccccccc"
   inkscape:transform-center-x="0.01986516"
   inkscape:transform-center-y="0.052585812" />
<path
   style="opacity:1;fill:none;fill-opacity:1;fill-rule:nonzero;stroke:none;stroke-width:5.24591112;stroke-linecap:round;stroke-miterlimit:4;stroke-dasharray:none;stroke-dashoffset:0;stroke-opacity:1;paint-order:markers fill stroke"
   d="M 4572.2068,2310.9242 A 2236.4144,2236.4144 0 0 1 2335.7927,4547.3384 2236.4144,2236.4144 0 0 1 99.378345,2310.9242 2236.4144,2236.4144 0 0 1 2335.7927,74.509979 2236.4144,2236.4144 0 0 1 4572.2068,2310.9242 Z"
   id="path1313"
   inkscape:connector-curvature="0" />
<path
   inkscape:connector-curvature="0"
   style="opacity:1;fill:none;fill-opacity:1;fill-rule:nonzero;stroke:none;stroke-width:5.24591112;stroke-linecap:round;stroke-miterlimit:4;stroke-dasharray:none;stroke-dashoffset:0;stroke-opacity:1;paint-order:markers fill stroke"
   d="M 4572.207,2310.9242 A 2236.4144,2236.4144 0 0 0 2335.7928,74.509893 2236.4144,2236.4144 0 0 0 99.378495,2310.9242 2236.4144,2236.4144 0 0 0 2335.7928,4547.3384 2236.4144,2236.4144 0 0 0 4572.207,2310.9242 Z"
   id="path1313-9" /><text
   xml:space="preserve"
   style="font-style:normal;font-weight:normal;font-size:249.62586975px;line-height:1.25;font-family:sans-serif;letter-spacing:0px;word-spacing:0px;fill:#ffffff;fill-opacity:1;stroke:none;stroke-width:6.24064684"
   id="text841"
   transform="matrix(-0.89044362,0.58762153,0.58080469,0.88011381,3060.4861,-1821.1031)"><textPath
     xlink:href="#path857"
     id="textPath859"><tspan
   style="font-style:normal;font-variant:normal;font-weight:bold;font-stretch:normal;font-size:399.40139771px;font-family:sans-serif;-inkscape-font-specification:'sans-serif, Bold';font-variant-ligatures:normal;font-variant-caps:normal;font-variant-numeric:normal;font-feature-settings:normal;text-align:start;writing-mode:lr-tb;text-anchor:start;fill:#ffffff;fill-opacity:1;stroke-width:6.24064684"
   id="tspan839">ÖKOTERRORISTISCHE</tspan></textPath></text>
<path
   style="fill:none;fill-opacity:1;stroke:none;stroke-width:7.11108685px;stroke-linecap:butt;stroke-linejoin:miter;stroke-opacity:1"
   d="m 4543.9032,2301.0602 c 482.1867,3363.141 -3945.80498,3330.6235 -4468.583845,0"
   id="path857"
   inkscape:connector-curvature="0"
   sodipodi:nodetypes="cc" /><text
   xml:space="preserve"
   style="font-style:normal;font-weight:normal;font-size:426.85140991px;line-height:1.25;font-family:sans-serif;letter-spacing:0.26617613px;word-spacing:0px;fill:#000000;fill-opacity:1;stroke:none;stroke-width:10.67128563;"
   id="text864"
   transform="matrix(-0.51193691,-0.86331489,-0.86014166,0.51005522,5554.1411,2969.8547)"><textPath
     xlink:href="#path881"
     id="textPath883"
     style="font-style:normal;font-variant:normal;font-weight:bold;font-stretch:normal;font-size:522.13214111px;font-family:sans-serif;-inkscape-font-specification:'sans-serif, Bold';font-variant-ligatures:normal;font-variant-caps:normal;font-variant-numeric:normal;font-feature-settings:normal;text-align:start;letter-spacing:26.61761307px;writing-mode:lr-tb;text-anchor:start;fill:#ffffff;fill-opacity:1;stroke-width:10.67128563">AKTION</textPath></text>
<text
   xml:space="preserve"
   style="font-style:normal;font-weight:normal;font-size:266.66665649px;line-height:1.25;font-family:sans-serif;letter-spacing:0px;word-spacing:0px;fill:#000000;fill-opacity:1;stroke:none;stroke-width:6.66666651"
   x="3657.8281"
   y="-2188.0464"
   id="text868"
   transform="scale(1,-1)"><tspan
     sodipodi:role="line"
     id="tspan866"
     x="3657.8281"
     y="-1952.1089"
     style="stroke-width:6.66666651" /></text>
<path
   style="fill:none;stroke:none;stroke-width:6.66666651px;stroke-linecap:butt;stroke-linejoin:miter;stroke-opacity:1"
   d="M 4515.7844,2206.9027 C 4491.7603,-527.7037 139.96687,-506.83775 131.72239,2272.8993"
   id="path881"
   inkscape:connector-curvature="0"
   sodipodi:nodetypes="cc" /></g></g></svg>